<svg width="500" height="500" xmlns="http://www.w3.org/2000/svg" version="1.1"><g transform="translate(250,250)"><g display="none"><path d="M0,144.33756729740642A144.33756729740642,144.33756729740642 0 1,1 0,-144.33756729740642A144.33756729740642,144.33756729740642 0 1,1 0,144.33756729740642Z" style="stroke: rgb(255, 255, 255); fill: rgb(191, 105, 105); fill-rule: evenodd;"></path><text transform="rotate(90)" x="0" dx="6" dy=".35em" style="font-size: 11px; font-family: Arial, Helvetica;">toufikairane/Babel</text><title>undefined: 4</title></g><g><path d="M1.2498999054348718e-14,-204.1241452319315A204.1241452319315,204.1241452319315 0 0,1 55.54288717620095,196.42213304716574L39.27475216897102,138.89142225277715A144.33756729740642,144.33756729740642 0 0,0 8.838126989374223e-15,-144.33756729740642Z" style="stroke: rgb(255, 255, 255); fill: rgb(191, 105, 105); fill-rule: evenodd;"></path><text transform="rotate(-7.894736842105264)" x="144.33756729740642" dx="6" dy=".35em" style="font-size: 11px; font-family: Arial, Helvetica;">Python</text><title>Python: none</title></g><g><path d="M1.5308084989341916e-14,-250A250,250 0 0,1 13.771940088966378,-249.62037910832905L11.24474199538253,-203.81418607183343A204.1241452319315,204.1241452319315 0 0,0 1.2498999054348718e-14,-204.1241452319315Z" style="stroke: rgb(255, 255, 255); fill: rgb(191, 105, 105); fill-rule: evenodd;"></path><text transform="rotate(-88.42105263157895)" x="204.1241452319315" dx="6" dy=".35em" style="font-size: 11px; font-family: Arial, Helvetica;">toufikairane/CVE-2017-0199</text><title>CVE-2017-0199 exploit toolkit: 1</title></g><g><path d="M13.771940088966378,-249.62037910832905A250,250 0 0,1 27.50205524851984,-248.48266932948738L22.45533407890187,-202.88524992732115A204.1241452319315,204.1241452319315 0 0,0 11.24474199538253,-203.81418607183343Z" style="stroke: rgb(255, 255, 255); fill: rgb(191, 111, 105); fill-rule: evenodd;"></path><text transform="rotate(-85.26315789473684)" x="204.1241452319315" dx="6" dy=".35em" style="font-size: 11px; font-family: Arial, Helvetica;">toufikairane/DocDropper</text><title>Reboot Spear Phishing: 1</title></g><g><path d="M27.50205524851984,-248.48266932948738A250,250 0 0,1 41.14864757018349,-246.59032585068059L33.5977300508548,-201.34015794693454A204.1241452319315,204.1241452319315 0 0,0 22.45533407890187,-202.88524992732115Z" style="stroke: rgb(255, 255, 255); fill: rgb(191, 117, 105); fill-rule: evenodd;"></path><text transform="rotate(-82.10526315789473)" x="204.1241452319315" dx="6" dy=".35em" style="font-size: 11px; font-family: Arial, Helvetica;">toxic-ig/Trity</text><title>My most advanced framework yet!! : 1</title></g><g><path d="M41.14864757018349,-246.59032585068059A250,250 0 0,1 54.670272801593974,-243.9490956568589L44.63809082088753,-199.18360252423605A204.1241452319315,204.1241452319315 0 0,0 33.5977300508548,-201.34015794693454Z" style="stroke: rgb(255, 255, 255); fill: rgb(191, 123, 105); fill-rule: evenodd;"></path><text transform="rotate(-78.94736842105263)" x="204.1241452319315" dx="6" dy=".35em" style="font-size: 11px; font-family: Arial, Helvetica;">tqdm/tqdm</text><title>A fast, extensible progress bar for Python and CLI: 1</title></g><g><path d="M54.670272801593974,-243.9490956568589A250,250 0 0,1 68.02586621133378,-240.5670000773126L55.54288717620095,-196.42213304716574A204.1241452319315,204.1241452319315 0 0,0 44.63809082088753,-199.18360252423605Z" style="stroke: rgb(255, 255, 255); fill: rgb(191, 129, 105); fill-rule: evenodd;"></path><text transform="rotate(-75.78947368421052)" x="204.1241452319315" dx="6" dy=".35em" style="font-size: 11px; font-family: Arial, Helvetica;">trevordavenport/Malwr.com-Automation-Script</text><title>Automation script for file submission and result reporting.: 1</title></g><g><path d="M68.02586621133378,-240.5670000773126A250,250 0 0,1 81.17486730117089,-236.45431042515867L66.2790016086679,-193.0641360077652A204.1241452319315,204.1241452319315 0 0,0 55.54288717620095,-196.42213304716574Z" style="stroke: rgb(255, 255, 255); fill: rgb(191, 135, 105); fill-rule: evenodd;"></path><text transform="rotate(-72.63157894736841)" x="204.1241452319315" dx="6" dy=".35em" style="font-size: 11px; font-family: Arial, Helvetica;">trevordavenport/MasscanAutomation</text><title>Masscan integrated with Shodan API: 1</title></g><g><path d="M81.17486730117089,-236.45431042515867A250,250 0 0,1 94.07734298695888,-231.62351680370045L76.81382889161691,-189.1198095326771A204.1241452319315,204.1241452319315 0 0,0 66.2790016086679,-193.0641360077652Z" style="stroke: rgb(255, 255, 255); fill: rgb(191, 141, 105); fill-rule: evenodd;"></path><text transform="rotate(-69.47368421052632)" x="204.1241452319315" dx="6" dy=".35em" style="font-size: 11px; font-family: Arial, Helvetica;">trustedsec/nps_payload</text><title>This script will generate payloads for basic intrusion detection avoidance. It utilizes publicly demonstrated techniques from several different sources.  Written by Larry Spohn (@Spoonman1091) Payload written by Ben Mauch (@Ben0xA) aka dirty_ben: 1</title></g><g><path d="M94.07734298695888,-231.62351680370045A250,250 0 0,1 106.69410887410093,-226.08929017439436L87.11537510083396,-184.6011324117695A204.1241452319315,204.1241452319315 0 0,0 76.81382889161691,-189.1198095326771Z" style="stroke: rgb(255, 255, 255); fill: rgb(191, 146, 105); fill-rule: evenodd;"></path><text transform="rotate(-66.3157894736842)" x="204.1241452319315" dx="6" dy=".35em" style="font-size: 11px; font-family: Arial, Helvetica;">trustedsec/ptf</text><title>The Penetration Testers Framework (PTF) is a way for modular support for up-to-date tools.: 1</title></g><g><path d="M106.69410887410093,-226.08929017439436A250,250 0 0,1 118.9868482592684,-219.86843780162224L97.1523547790588,-179.52182771894493A204.1241452319315,204.1241452319315 0 0,0 87.11537510083396,-184.6011324117695Z" style="stroke: rgb(255, 255, 255); fill: rgb(191, 152, 105); fill-rule: evenodd;"></path><text transform="rotate(-63.1578947368421)" x="204.1241452319315" dx="6" dy=".35em" style="font-size: 11px; font-family: Arial, Helvetica;">trustedsec/spraywmi</text><title>SprayWMI is an easy way to get mass shells on systems that support WMI. Much more effective than PSEXEC as it does not leave remnants on a system.: 1</title></g><g><path d="M118.9868482592684,-219.86843780162224A250,250 0 0,1 130.9182284969695,-212.97985220958176L106.89428594889037,-173.8973211356159A204.1241452319315,204.1241452319315 0 0,0 97.1523547790588,-179.52182771894493Z" style="stroke: rgb(255, 255, 255); fill: rgb(191, 158, 105); fill-rule: evenodd;"></path><text transform="rotate(-60.00000000000001)" x="204.1241452319315" dx="6" dy=".35em" style="font-size: 11px; font-family: Arial, Helvetica;">trustedsec/trevorc2</text><title>TrevorC2 is a legitimate website (browsable) that tunnels client/server communications for covert command execution.: 1</title></g><g><path d="M130.9182284969695,-212.97985220958176A250,250 0 0,1 142.45201437756654,-205.4444538063113L116.31158268555035,-167.74469410341732A204.1241452319315,204.1241452319315 0 0,0 106.89428594889037,-173.8973211356159Z" style="stroke: rgb(255, 255, 255); fill: rgb(191, 164, 105); fill-rule: evenodd;"></path><text transform="rotate(-56.84210526315789)" x="204.1241452319315" dx="6" dy=".35em" style="font-size: 11px; font-family: Arial, Helvetica;">tulpar/tulpar</text><title>Tulpar - Web Vulnerability Scanner: 1</title></g><g><path d="M142.45201437756654,-205.4444538063113A250,250 0 0,1 153.55317817241695,-197.2851273490984L125.37564496836437,-161.08263194842985A204.1241452319315,204.1241452319315 0 0,0 116.31158268555035,-167.74469410341732Z" style="stroke: rgb(255, 255, 255); fill: rgb(191, 170, 105); fill-rule: evenodd;"></path><text transform="rotate(-53.68421052631579)" x="204.1241452319315" dx="6" dy=".35em" style="font-size: 11px; font-family: Arial, Helvetica;">tylerlaberge/PyPattyrn</text><title>A simple library for implementing common design patterns.: 1</title></g><g><path d="M153.55317817241695,-197.2851273490984A250,250 0 0,1 164.18800601193362,-188.52665244422406L134.0589455380847,-153.93136713445867A204.1241452319315,204.1241452319315 0 0,0 125.37564496836437,-161.08263194842985Z" style="stroke: rgb(255, 255, 255); fill: rgb(191, 176, 105); fill-rule: evenodd;"></path><text transform="rotate(-50.526315789473685)" x="204.1241452319315" dx="6" dy=".35em" style="font-size: 11px; font-family: Arial, Helvetica;">uber-common/metta</text><title>An information security preparedness tool to do adversarial simulation.: 1</title></g><g><path d="M164.18800601193362,-188.52665244422406A250,250 0 0,1 174.32420027349886,-179.19562829211281L142.33511349627196,-146.31261781770579A204.1241452319315,204.1241452319315 0 0,0 134.0589455380847,-153.93136713445867Z" style="stroke: rgb(255, 255, 255); fill: rgb(191, 182, 105); fill-rule: evenodd;"></path><text transform="rotate(-47.368421052631575)" x="204.1241452319315" dx="6" dy=".35em" style="font-size: 11px; font-family: Arial, Helvetica;">unode/firefox_decrypt</text><title>Firefox Decrypt is a tool to extract passwords from Mozilla (Firefox/Thunderbird/Seabird) profiles: 1</title></g><g><path d="M174.32420027349886,-179.19562829211281A250,250 0 0,1 183.93097766828294,-169.32039290643527L150.17901439284694,-138.2495218894436A204.1241452319315,204.1241452319315 0 0,0 142.33511349627196,-146.31261781770579Z" style="stroke: rgb(255, 255, 255); fill: rgb(191, 188, 105); fill-rule: evenodd;"></path><text transform="rotate(-44.21052631578947)" x="204.1241452319315" dx="6" dy=".35em" style="font-size: 11px; font-family: Arial, Helvetica;">urwid/urwid</text><title>Console user interface library for Python (official repo): 1</title></g><g><path d="M183.93097766828294,-169.32039290643527A250,250 0 0,1 192.97916272908023,-158.930937052492L157.56682655858924,-129.76656670699936A204.1241452319315,204.1241452319315 0 0,0 150.17901439284694,-138.2495218894436Z" style="stroke: rgb(255, 255, 255); fill: rgb(188, 191, 105); fill-rule: evenodd;"></path><text transform="rotate(-41.05263157894736)" x="204.1241452319315" dx="6" dy=".35em" style="font-size: 11px; font-family: Arial, Helvetica;">ustayready/CredKing</text><title>Password spraying using AWS Lambda for IP rotation: 1</title></g><g><path d="M192.97916272908023,-158.930937052492A250,250 0 0,1 201.44127641524454,-148.058813166245L164.47611345076413,-120.88951472645603A204.1241452319315,204.1241452319315 0 0,0 157.56682655858924,-129.76656670699936Z" style="stroke: rgb(255, 255, 255); fill: rgb(182, 191, 105); fill-rule: evenodd;"></path><text transform="rotate(-37.89473684210526)" x="204.1241452319315" dx="6" dy=".35em" style="font-size: 11px; font-family: Arial, Helvetica;">vaguileradiaz/tinfoleak</text><title>The most complete open-source tool for Twitter intelligence analysis: 1</title></g><g><path d="M201.44127641524454,-148.058813166245A250,250 0 0,1 209.29161956563217,-136.7370395306067L170.885891792165,-111.64532526291968A204.1241452319315,204.1241452319315 0 0,0 164.47611345076413,-120.88951472645603Z" style="stroke: rgb(255, 255, 255); fill: rgb(176, 191, 105); fill-rule: evenodd;"></path><text transform="rotate(-34.73684210526316)" x="204.1241452319315" dx="6" dy=".35em" style="font-size: 11px; font-family: Arial, Helvetica;">vasco2016/ransomware</text><title>Seeing how easy it is to create ransomware.: 1</title></g><g><path d="M209.29161956563217,-136.7370395306067A250,250 0 0,1 216.50635094610965,-125L176.77669529663686,-102.06207261596575A204.1241452319315,204.1241452319315 0 0,0 170.885891792165,-111.64532526291968Z" style="stroke: rgb(255, 255, 255); fill: rgb(170, 191, 105); fill-rule: evenodd;"></path><text transform="rotate(-31.578947368421055)" x="204.1241452319315" dx="6" dy=".35em" style="font-size: 11px; font-family: Arial, Helvetica;">vesche/scanless</text><title>online port scan scraper: 1</title></g><g><path d="M216.50635094610965,-125A250,250 0 0,1 223.06355965459852,-112.88333957772235L182.1306337875475,-92.16886080891375A204.1241452319315,204.1241452319315 0 0,0 176.77669529663686,-102.06207261596575Z" style="stroke: rgb(255, 255, 255); fill: rgb(164, 191, 105); fill-rule: evenodd;"></path><text transform="rotate(-28.421052631578952)" x="204.1241452319315" dx="6" dy=".35em" style="font-size: 11px; font-family: Arial, Helvetica;">vulnersCom/api</text><title>Vulners Python API wrapper: 1</title></g><g><path d="M223.06355965459852,-112.88333957772235A250,250 0 0,1 228.94333166376435,-100.42385616324238L186.93144752966597,-81.99573520086514A204.1241452319315,204.1241452319315 0 0,0 182.1306337875475,-92.16886080891375Z" style="stroke: rgb(255, 255, 255); fill: rgb(158, 191, 105); fill-rule: evenodd;"></path><text transform="rotate(-25.263157894736846)" x="204.1241452319315" dx="6" dy=".35em" style="font-size: 11px; font-family: Arial, Helvetica;">vulnersCom/getsploit</text><title>Command line utility for searching and downloading exploits: 1</title></g><g><path d="M228.94333166376435,-100.42385616324238A250,250 0 0,1 234.1278102992637,-87.6593887981886L191.16455660944402,-71.5735912399352A204.1241452319315,204.1241452319315 0 0,0 186.93144752966597,-81.99573520086514Z" style="stroke: rgb(255, 255, 255); fill: rgb(191, 129, 105); fill-rule: evenodd;"></path><text transform="rotate(-22.10526315789474)" x="204.1241452319315" dx="6" dy=".35em" style="font-size: 11px; font-family: Arial, Helvetica;">wanching/nmap-cve-shodan-crawler</text><title>give a query string and get relative documents from three websites(nmap, cve, shodan): 1</title></g><g><path d="M234.1278102992637,-87.6593887981886A250,250 0 0,1 238.60125046987685,-74.62870275042364L194.8171052137344,-60.93408063479249A204.1241452319315,204.1241452319315 0 0,0 191.16455660944402,-71.5735912399352Z" style="stroke: rgb(255, 255, 255); fill: rgb(152, 191, 105); fill-rule: evenodd;"></path><text transform="rotate(-18.947368421052634)" x="204.1241452319315" dx="6" dy=".35em" style="font-size: 11px; font-family: Arial, Helvetica;">wetw0rk/Sickle</text><title>Shellcode development tool: 1</title></g><g><path d="M238.60125046987685,-74.62870275042364A250,250 0 0,1 242.35006648483258,-61.3713717851998L197.8780006724729,-50.109515229459944A204.1241452319315,204.1241452319315 0 0,0 194.8171052137344,-60.93408063479249Z" style="stroke: rgb(255, 255, 255); fill: rgb(146, 191, 105); fill-rule: evenodd;"></path><text transform="rotate(-15.789473684210527)" x="204.1241452319315" dx="6" dy=".35em" style="font-size: 11px; font-family: Arial, Helvetica;">woj-ciech/Daily-dose-of-malware</text><title>Script lets you gather malicious software and c&amp;c servers from open source platforms like Malshare, Malcode, Google, Cymon - vxvault, cybercrime tracker and c2 for Pony. : 1</title></g><g><path d="M242.35006648483258,-61.3713717851998A250,250 0 0,1 245.36287331310447,-47.92765798093461L200.33794714675258,-39.132768873306546A204.1241452319315,204.1241452319315 0 0,0 197.8780006724729,-50.109515229459944Z" style="stroke: rgb(255, 255, 255); fill: rgb(141, 191, 105); fill-rule: evenodd;"></path><text transform="rotate(-12.631578947368423)" x="204.1241452319315" dx="6" dy=".35em" style="font-size: 11px; font-family: Arial, Helvetica;">worawit/MS17-010</text><title>MS17-010: 1</title></g><g><path d="M245.36287331310447,-47.92765798093461A250,250 0 0,1 247.6305211593758,-34.338389454602044L202.18947385998126,-28.037177584247253A204.1241452319315,204.1241452319315 0 0,0 200.33794714675258,-39.132768873306546Z" style="stroke: rgb(255, 255, 255); fill: rgb(135, 191, 105); fill-rule: evenodd;"></path><text transform="rotate(-9.473684210526317)" x="204.1241452319315" dx="6" dy=".35em" style="font-size: 11px; font-family: Arial, Helvetica;">x0rz/EQGRP_Lost_in_Translation</text><title>Decrypted content of odd.tar.xz.gpg, swift.tar.xz.gpg and windows.tar.xz.gpg: 1</title></g><g><path d="M247.6305211593758,-34.338389454602044A250,250 0 0,1 249.14612325166746,-20.644836368083084L203.4269577863843,-16.85643830835221A204.1241452319315,204.1241452319315 0 0,0 202.18947385998126,-28.037177584247253Z" style="stroke: rgb(255, 255, 255); fill: rgb(129, 191, 105); fill-rule: evenodd;"></path><text transform="rotate(-6.3157894736842115)" x="204.1241452319315" dx="6" dy=".35em" style="font-size: 11px; font-family: Arial, Helvetica;">x0rz/tweets_analyzer</text><title>Tweets metadata scraper &amp; activity analyzer: 1</title></g><g><path d="M249.14612325166746,-20.644836368083084A250,250 0 0,1 249.90507675623786,-6.8885855920405L204.04664072794912,-5.6245065833290635A204.1241452319315,204.1241452319315 0 0,0 203.4269577863843,-16.85643830835221Z" style="stroke: rgb(255, 255, 255); fill: rgb(123, 191, 105); fill-rule: evenodd;"></path><text transform="rotate(-3.1578947368421058)" x="204.1241452319315" dx="6" dy=".35em" style="font-size: 11px; font-family: Arial, Helvetica;">x3omdax/PenBox</text><title>PenBox - A Penetration Testing Framework - The Tool With All The Tools , The Hacker's Repo: 1</title></g><g><path d="M249.90507675623786,-6.8885855920405A250,250 0 0,1 249.90507675623786,6.8885855920405L204.04664072794912,5.6245065833290635A204.1241452319315,204.1241452319315 0 0,0 204.04664072794912,-5.6245065833290635Z" style="stroke: rgb(255, 255, 255); fill: rgb(117, 191, 105); fill-rule: evenodd;"></path><text transform="rotate(0)" x="204.1241452319315" dx="6" dy=".35em" style="font-size: 11px; font-family: Arial, Helvetica;">x90skysn3k/brutespray</text><title>Brute-Forcing from Nmap output - Automatically attempts default creds on found services.: 1</title></g><g><path d="M249.90507675623786,6.8885855920405A250,250 0 0,1 249.14612325166746,20.644836368083084L203.4269577863843,16.85643830835221A204.1241452319315,204.1241452319315 0 0,0 204.04664072794912,5.6245065833290635Z" style="stroke: rgb(255, 255, 255); fill: rgb(191, 129, 105); fill-rule: evenodd;"></path><text transform="rotate(3.1578947368421058)" x="204.1241452319315" dx="6" dy=".35em" style="font-size: 11px; font-family: Arial, Helvetica;">xSploited/Bella</text><title>A pure python, post-exploitation, data mining tool and remote administration tool for macOS.: 1</title></g><g><path d="M249.14612325166746,20.644836368083084A250,250 0 0,1 247.6305211593758,34.338389454602044L202.18947385998126,28.037177584247253A204.1241452319315,204.1241452319315 0 0,0 203.4269577863843,16.85643830835221Z" style="stroke: rgb(255, 255, 255); fill: rgb(191, 129, 105); fill-rule: evenodd;"></path><text transform="rotate(6.3157894736842115)" x="204.1241452319315" dx="6" dy=".35em" style="font-size: 11px; font-family: Arial, Helvetica;">xSploited/DGA</text><title>The repository that contains the algorithms for generating domain names, dictionaries of malicious domain names. Developed to research the possibility of applying machine learning and neural networks to detect and classify malicious domains.: 1</title></g><g><path d="M247.6305211593758,34.338389454602044A250,250 0 0,1 245.36287331310447,47.92765798093461L200.33794714675258,39.132768873306546A204.1241452319315,204.1241452319315 0 0,0 202.18947385998126,28.037177584247253Z" style="stroke: rgb(255, 255, 255); fill: rgb(191, 129, 105); fill-rule: evenodd;"></path><text transform="rotate(9.473684210526317)" x="204.1241452319315" dx="6" dy=".35em" style="font-size: 11px; font-family: Arial, Helvetica;">xSploited/FreeWifi</text><title>How to get free wifi.: 1</title></g><g><path d="M245.36287331310447,47.92765798093461A250,250 0 0,1 242.35006648483258,61.3713717851998L197.8780006724729,50.109515229459944A204.1241452319315,204.1241452319315 0 0,0 200.33794714675258,39.132768873306546Z" style="stroke: rgb(255, 255, 255); fill: rgb(191, 129, 105); fill-rule: evenodd;"></path><text transform="rotate(12.631578947368423)" x="204.1241452319315" dx="6" dy=".35em" style="font-size: 11px; font-family: Arial, Helvetica;">xSploited/cosa-nostra</text><title>Cosa Nostra, a FOSS graph based malware clusterization toolkit.: 1</title></g><g><path d="M242.35006648483258,61.3713717851998A250,250 0 0,1 238.60125046987685,74.62870275042364L194.8171052137344,60.93408063479249A204.1241452319315,204.1241452319315 0 0,0 197.8780006724729,50.109515229459944Z" style="stroke: rgb(255, 255, 255); fill: rgb(191, 129, 105); fill-rule: evenodd;"></path><text transform="rotate(15.789473684210527)" x="204.1241452319315" dx="6" dy=".35em" style="font-size: 11px; font-family: Arial, Helvetica;">xSploited/maltrieve</text><title>A tool to retrieve malware directly from the source for security researchers.: 1</title></g><g><path d="M238.60125046987685,74.62870275042364A250,250 0 0,1 234.1278102992637,87.6593887981886L191.16455660944402,71.5735912399352A204.1241452319315,204.1241452319315 0 0,0 194.8171052137344,60.93408063479249Z" style="stroke: rgb(255, 255, 255); fill: rgb(191, 129, 105); fill-rule: evenodd;"></path><text transform="rotate(18.947368421052634)" x="204.1241452319315" dx="6" dy=".35em" style="font-size: 11px; font-family: Arial, Helvetica;">xSploited/ph0neutria</text><title>ph0neutria is a malware zoo builder that sources samples from MalShare and the wild (via the Malc0de database). All fetched samples are stored in Viper for ease of access.: 1</title></g><g><path d="M234.1278102992637,87.6593887981886A250,250 0 0,1 228.94333166376435,100.42385616324238L186.93144752966597,81.99573520086514A204.1241452319315,204.1241452319315 0 0,0 191.16455660944402,71.5735912399352Z" style="stroke: rgb(255, 255, 255); fill: rgb(191, 129, 105); fill-rule: evenodd;"></path><text transform="rotate(22.10526315789474)" x="204.1241452319315" dx="6" dy=".35em" style="font-size: 11px; font-family: Arial, Helvetica;">xSploited/the-watcher</text><title>this tool can spy on the devices in the local network devices with many options that can make sniffing on the local network so easy to make it done this tool take weeks to make it more easier and flexible for all users so we will be thankful if you can rate our tool :D : 1</title></g><g><path d="M228.94333166376435,100.42385616324238A250,250 0 0,1 223.06355965459855,112.8833395777223L182.13063378754754,92.1688608089137A204.1241452319315,204.1241452319315 0 0,0 186.93144752966597,81.99573520086514Z" style="stroke: rgb(255, 255, 255); fill: rgb(111, 191, 105); fill-rule: evenodd;"></path><text transform="rotate(25.263157894736846)" x="204.1241452319315" dx="6" dy=".35em" style="font-size: 11px; font-family: Arial, Helvetica;">xdavidhu/portSpider</text><title>🕷 A lightning fast multithreaded network scanner framework with modules.: 1</title></g><g><path d="M223.06355965459855,112.8833395777223A250,250 0 0,1 216.50635094610968,124.99999999999996L176.7766952966369,102.06207261596572A204.1241452319315,204.1241452319315 0 0,0 182.13063378754754,92.1688608089137Z" style="stroke: rgb(255, 255, 255); fill: rgb(105, 191, 105); fill-rule: evenodd;"></path><text transform="rotate(28.421052631578927)" x="204.1241452319315" dx="6" dy=".35em" style="font-size: 11px; font-family: Arial, Helvetica;">xdavidhu/probeSniffer</text><title>🔍 A tool for sniffing unencrypted wireless probe requests from devices.: 1</title></g><g><path d="M216.50635094610968,124.99999999999996A250,250 0 0,1 209.29161956563217,136.73703953060667L170.885891792165,111.64532526291966A204.1241452319315,204.1241452319315 0 0,0 176.7766952966369,102.06207261596572Z" style="stroke: rgb(255, 255, 255); fill: rgb(105, 191, 111); fill-rule: evenodd;"></path><text transform="rotate(31.57894736842103)" x="204.1241452319315" dx="6" dy=".35em" style="font-size: 11px; font-family: Arial, Helvetica;">xoreaxeaxeax/sandsifter</text><title>The x86 processor fuzzer: 1</title></g><g><path d="M209.29161956563217,136.73703953060667A250,250 0 0,1 201.44127641524457,148.05881316624496L164.47611345076416,120.889514726456A204.1241452319315,204.1241452319315 0 0,0 170.885891792165,111.64532526291966Z" style="stroke: rgb(255, 255, 255); fill: rgb(105, 191, 117); fill-rule: evenodd;"></path><text transform="rotate(34.736842105263136)" x="204.1241452319315" dx="6" dy=".35em" style="font-size: 11px; font-family: Arial, Helvetica;">yandex/gixy</text><title>Nginx configuration static analyzer: 1</title></g><g><path d="M201.44127641524457,148.05881316624496A250,250 0 0,1 192.97916272908026,158.93093705249197L157.56682655858927,129.76656670699933A204.1241452319315,204.1241452319315 0 0,0 164.47611345076416,120.889514726456Z" style="stroke: rgb(255, 255, 255); fill: rgb(105, 191, 123); fill-rule: evenodd;"></path><text transform="rotate(37.89473684210524)" x="204.1241452319315" dx="6" dy=".35em" style="font-size: 11px; font-family: Arial, Helvetica;">yashk2810/Encryption-Tool</text><title>This python program Encrypts everything with AES 256 bit algorithm.: 1</title></g><g><path d="M192.97916272908026,158.93093705249197A250,250 0 0,1 183.93097766828294,169.32039290643525L150.17901439284694,138.24952188944357A204.1241452319315,204.1241452319315 0 0,0 157.56682655858927,129.76656670699933Z" style="stroke: rgb(255, 255, 255); fill: rgb(105, 191, 129); fill-rule: evenodd;"></path><text transform="rotate(41.05263157894735)" x="204.1241452319315" dx="6" dy=".35em" style="font-size: 11px; font-family: Arial, Helvetica;">yasinkuyu/binance-trader</text><title>💰 Cryptocurrency Trading Bot for Binance (Experimental): 1</title></g><g><path d="M183.93097766828294,169.32039290643525A250,250 0 0,1 174.3242002734989,179.19562829211281L142.335113496272,146.31261781770579A204.1241452319315,204.1241452319315 0 0,0 150.17901439284694,138.24952188944357Z" style="stroke: rgb(255, 255, 255); fill: rgb(105, 191, 135); fill-rule: evenodd;"></path><text transform="rotate(44.21052631578946)" x="204.1241452319315" dx="6" dy=".35em" style="font-size: 11px; font-family: Arial, Helvetica;">yeasy/docker_practice</text><title>Learn and understand Docker technologies, with real DevOps practice!: 1</title></g><g><path d="M174.3242002734989,179.19562829211281A250,250 0 0,1 164.18800601193362,188.52665244422403L134.0589455380847,153.93136713445864A204.1241452319315,204.1241452319315 0 0,0 142.335113496272,146.31261781770579Z" style="stroke: rgb(255, 255, 255); fill: rgb(105, 191, 141); fill-rule: evenodd;"></path><text transform="rotate(47.368421052631554)" x="204.1241452319315" dx="6" dy=".35em" style="font-size: 11px; font-family: Arial, Helvetica;">ytisf/PyExfil</text><title>A Python Package for Data Exfiltration: 1</title></g><g><path d="M164.18800601193362,188.52665244422403A250,250 0 0,1 153.55317817241698,197.2851273490984L125.37564496836438,161.08263194842985A204.1241452319315,204.1241452319315 0 0,0 134.0589455380847,153.93136713445864Z" style="stroke: rgb(255, 255, 255); fill: rgb(105, 191, 146); fill-rule: evenodd;"></path><text transform="rotate(50.526315789473664)" x="204.1241452319315" dx="6" dy=".35em" style="font-size: 11px; font-family: Arial, Helvetica;">yukuku/telebot</text><title>Telegram Bot starter kit. Very easy to install with Google App Engine.: 1</title></g><g><path d="M153.55317817241698,197.2851273490984A250,250 0 0,1 142.45201437756657,205.44445380631126L116.31158268555038,167.7446941034173A204.1241452319315,204.1241452319315 0 0,0 125.37564496836438,161.08263194842985Z" style="stroke: rgb(255, 255, 255); fill: rgb(105, 191, 152); fill-rule: evenodd;"></path><text transform="rotate(53.68421052631577)" x="204.1241452319315" dx="6" dy=".35em" style="font-size: 11px; font-family: Arial, Helvetica;">yunstanford/sanic-transmute</text><title>A Sanic extension that generates APIs from python function and classes.: 1</title></g><g><path d="M142.45201437756657,205.44445380631126A250,250 0 0,1 130.9182284969695,212.97985220958176L106.89428594889037,173.8973211356159A204.1241452319315,204.1241452319315 0 0,0 116.31158268555038,167.7446941034173Z" style="stroke: rgb(255, 255, 255); fill: rgb(105, 191, 158); fill-rule: evenodd;"></path><text transform="rotate(56.84210526315788)" x="204.1241452319315" dx="6" dy=".35em" style="font-size: 11px; font-family: Arial, Helvetica;">z0noxz/powerstager</text><title>A payload stager using PowerShell: 1</title></g><g><path d="M130.9182284969695,212.97985220958176A250,250 0 0,1 118.9868482592684,219.86843780162224L97.1523547790588,179.52182771894493A204.1241452319315,204.1241452319315 0 0,0 106.89428594889037,173.8973211356159Z" style="stroke: rgb(255, 255, 255); fill: rgb(105, 191, 164); fill-rule: evenodd;"></path><text transform="rotate(59.999999999999986)" x="204.1241452319315" dx="6" dy=".35em" style="font-size: 11px; font-family: Arial, Helvetica;">zdresearch/OWASP-Nettacker</text><title>Automated Penetration Testing Framework: 1</title></g><g><path d="M118.9868482592684,219.86843780162224A250,250 0 0,1 106.69410887410093,226.08929017439436L87.11537510083396,184.6011324117695A204.1241452319315,204.1241452319315 0 0,0 97.1523547790588,179.52182771894493Z" style="stroke: rgb(255, 255, 255); fill: rgb(105, 191, 170); fill-rule: evenodd;"></path><text transform="rotate(63.15789473684209)" x="204.1241452319315" dx="6" dy=".35em" style="font-size: 11px; font-family: Arial, Helvetica;">zeroSteiner/mayhem</text><title>Runtime Process Manipulation: 1</title></g><g><path d="M106.69410887410093,226.08929017439436A250,250 0 0,1 94.07734298695888,231.62351680370045L76.81382889161691,189.1198095326771A204.1241452319315,204.1241452319315 0 0,0 87.11537510083396,184.6011324117695Z" style="stroke: rgb(255, 255, 255); fill: rgb(105, 191, 176); fill-rule: evenodd;"></path><text transform="rotate(66.31578947368419)" x="204.1241452319315" dx="6" dy=".35em" style="font-size: 11px; font-family: Arial, Helvetica;">zerosum0x0/koadic</text><title>Koadic C3 COM Command &amp; Control - JScript RAT: 1</title></g><g><path d="M94.07734298695888,231.62351680370045A250,250 0 0,1 81.17486730117089,236.45431042515867L66.2790016086679,193.0641360077652A204.1241452319315,204.1241452319315 0 0,0 76.81382889161691,189.1198095326771Z" style="stroke: rgb(255, 255, 255); fill: rgb(105, 191, 182); fill-rule: evenodd;"></path><text transform="rotate(69.4736842105263)" x="204.1241452319315" dx="6" dy=".35em" style="font-size: 11px; font-family: Arial, Helvetica;">zmap/ztag</text><title>Tagging and annotation framework for scan data: 1</title></g><g><path d="M81.17486730117089,236.45431042515867A250,250 0 0,1 68.02586621133378,240.5670000773126L55.54288717620095,196.42213304716574A204.1241452319315,204.1241452319315 0 0,0 66.2790016086679,193.0641360077652Z" style="stroke: rgb(255, 255, 255); fill: rgb(105, 191, 188); fill-rule: evenodd;"></path><text transform="rotate(72.63157894736841)" x="204.1241452319315" dx="6" dy=".35em" style="font-size: 11px; font-family: Arial, Helvetica;">ztgrace/changeme</text><title>A default credential scanner.: 1</title></g><g><path d="M55.54288717620095,196.42213304716574A204.1241452319315,204.1241452319315 0 0,1 44.63809082088753,199.18360252423605L31.563896718670552,140.84407604605323A144.33756729740642,144.33756729740642 0 0,0 39.27475216897102,138.89142225277715Z" style="stroke: rgb(255, 255, 255); fill: rgb(105, 188, 191); fill-rule: evenodd;"></path><text transform="rotate(75.7894736842105)" x="144.33756729740642" dx="6" dy=".35em" style="font-size: 11px; font-family: Arial, Helvetica;">toufikairane/Pentest</text><title>Java: 1</title></g><g><path d="M44.63809082088753,199.18360252423605A204.1241452319315,204.1241452319315 0 0,1 1.2498999054348718e-14,204.1241452319315L8.838126989374223e-15,144.33756729740642A144.33756729740642,144.33756729740642 0 0,0 31.563896718670552,140.84407604605323Z" style="stroke: rgb(255, 255, 255); fill: rgb(105, 182, 191); fill-rule: evenodd;"></path><text transform="rotate(83.6842105263158)" x="144.33756729740642" dx="6" dy=".35em" style="font-size: 11px; font-family: Arial, Helvetica;">Perl</text><title>Perl: none</title></g><g><path d="M54.670272801593974,243.9490956568589A250,250 0 0,1 41.14864757018349,246.59032585068059L33.5977300508548,201.34015794693454A204.1241452319315,204.1241452319315 0 0,0 44.63809082088753,199.18360252423605Z" style="stroke: rgb(255, 255, 255); fill: rgb(105, 182, 191); fill-rule: evenodd;"></path><text transform="rotate(78.94736842105262)" x="204.1241452319315" dx="6" dy=".35em" style="font-size: 11px; font-family: Arial, Helvetica;">trapd00r/utils</text><title>Small useful utilities for everyday work: 1</title></g><g><path d="M41.14864757018349,246.59032585068059A250,250 0 0,1 27.50205524851984,248.48266932948738L22.45533407890187,202.88524992732115A204.1241452319315,204.1241452319315 0 0,0 33.5977300508548,201.34015794693454Z" style="stroke: rgb(255, 255, 255); fill: rgb(105, 176, 191); fill-rule: evenodd;"></path><text transform="rotate(82.10526315789473)" x="204.1241452319315" dx="6" dy=".35em" style="font-size: 11px; font-family: Arial, Helvetica;">x0rz/EQGRP</text><title>Decrypted content of eqgrp-auction-file.tar.xz: 1</title></g><g><path d="M27.50205524851984,248.48266932948738A250,250 0 0,1 13.771940088966378,249.62037910832905L11.24474199538253,203.81418607183343A204.1241452319315,204.1241452319315 0 0,0 22.45533407890187,202.88524992732115Z" style="stroke: rgb(255, 255, 255); fill: rgb(191, 129, 105); fill-rule: evenodd;"></path><text transform="rotate(85.26315789473682)" x="204.1241452319315" dx="6" dy=".35em" style="font-size: 11px; font-family: Arial, Helvetica;">xSploited/shellcoder</text><title>Create shellcode from executable or assembly code: 1</title></g><g><path d="M13.771940088966378,249.62037910832905A250,250 0 0,1 1.5308084989341916e-14,250L1.2498999054348718e-14,204.1241452319315A204.1241452319315,204.1241452319315 0 0,0 11.24474199538253,203.81418607183343Z" style="stroke: rgb(255, 255, 255); fill: rgb(105, 170, 191); fill-rule: evenodd;"></path><text transform="rotate(88.42105263157893)" x="204.1241452319315" dx="6" dy=".35em" style="font-size: 11px; font-family: Arial, Helvetica;">xme/pastemon</text><title>pastebin.com Content Monitoring Tool: 1</title></g><g><path d="M1.2498999054348718e-14,204.1241452319315A204.1241452319315,204.1241452319315 0 0,1 -87.11537510083394,184.60113241176953L-61.59987247940939,130.532712543078A144.33756729740642,144.33756729740642 0 0,0 8.838126989374223e-15,144.33756729740642Z" style="stroke: rgb(255, 255, 255); fill: rgb(105, 164, 191); fill-rule: evenodd;"></path><text transform="rotate(102.63157894736842)" x="144.33756729740642" dx="6" dy=".35em" style="font-size: 11px; font-family: Arial, Helvetica;">Shell</text><title>Shell: none</title></g><g><path d="M1.5308084989341916e-14,250A250,250 0 0,1 -13.771940088966346,249.62037910832905L-11.244741995382505,203.81418607183343A204.1241452319315,204.1241452319315 0 0,0 1.2498999054348718e-14,204.1241452319315Z" style="stroke: rgb(255, 255, 255); fill: rgb(105, 164, 191); fill-rule: evenodd;"></path><text transform="rotate(91.57894736842104)" x="204.1241452319315" dx="6" dy=".35em" style="font-size: 11px; font-family: Arial, Helvetica;">trimstray/sandmap</text><title>Sandmap is a tool supporting network and system reconnaissance using the massive Nmap engine. It provides a user-friendly interface, automates and speeds up scanning and allows you to easily use many advanced scanning techniques.: 1</title></g><g><path d="M-13.771940088966346,249.62037910832905A250,250 0 0,1 -27.50205524851981,248.48266932948738L-22.455334078901846,202.88524992732115A204.1241452319315,204.1241452319315 0 0,0 -11.244741995382505,203.81418607183343Z" style="stroke: rgb(255, 255, 255); fill: rgb(105, 158, 191); fill-rule: evenodd;"></path><text transform="rotate(94.73684210526315)" x="204.1241452319315" dx="6" dy=".35em" style="font-size: 11px; font-family: Arial, Helvetica;">v1s1t0r1sh3r3/airgeddon</text><title>This is a multi-use bash script for Linux systems to audit wireless networks.: 1</title></g><g><path d="M-27.50205524851981,248.48266932948738A250,250 0 0,1 -41.148647570183456,246.5903258506806L-33.59773005085477,201.34015794693457A204.1241452319315,204.1241452319315 0 0,0 -22.455334078901846,202.88524992732115Z" style="stroke: rgb(255, 255, 255); fill: rgb(105, 152, 191); fill-rule: evenodd;"></path><text transform="rotate(97.89473684210525)" x="204.1241452319315" dx="6" dy=".35em" style="font-size: 11px; font-family: Arial, Helvetica;">wireghoul/graudit</text><title>Grep rough audit - source code auditing tool: 1</title></g><g><path d="M-41.148647570183456,246.5903258506806A250,250 0 0,1 -54.670272801593946,243.9490956568589L-44.638090820887506,199.18360252423605A204.1241452319315,204.1241452319315 0 0,0 -33.59773005085477,201.34015794693457Z" style="stroke: rgb(255, 255, 255); fill: rgb(105, 146, 191); fill-rule: evenodd;"></path><text transform="rotate(101.05263157894737)" x="204.1241452319315" dx="6" dy=".35em" style="font-size: 11px; font-family: Arial, Helvetica;">wknapik/vpnfailsafe</text><title>IP leak prevention for OpenVPN: 1</title></g><g><path d="M-54.670272801593946,243.9490956568589A250,250 0 0,1 -68.02586621133375,240.5670000773126L-55.54288717620092,196.42213304716574A204.1241452319315,204.1241452319315 0 0,0 -44.638090820887506,199.18360252423605Z" style="stroke: rgb(255, 255, 255); fill: rgb(105, 191, 152); fill-rule: evenodd;"></path><text transform="rotate(104.21052631578945)" x="204.1241452319315" dx="6" dy=".35em" style="font-size: 11px; font-family: Arial, Helvetica;">wolfvan/some-samples</text><title>Malware captured with honeypots: 1</title></g><g><path d="M-68.02586621133375,240.5670000773126A250,250 0 0,1 -81.17486730117086,236.45431042515867L-66.27900160866787,193.0641360077652A204.1241452319315,204.1241452319315 0 0,0 -55.54288717620092,196.42213304716574Z" style="stroke: rgb(255, 255, 255); fill: rgb(191, 129, 105); fill-rule: evenodd;"></path><text transform="rotate(107.36842105263158)" x="204.1241452319315" dx="6" dy=".35em" style="font-size: 11px; font-family: Arial, Helvetica;">xSploited/chuckle</text><title>An automated SMB relay exploitation script.: 1</title></g><g><path d="M-81.17486730117086,236.45431042515867A250,250 0 0,1 -94.07734298695885,231.62351680370045L-76.81382889161688,189.1198095326771A204.1241452319315,204.1241452319315 0 0,0 -66.27900160866787,193.0641360077652Z" style="stroke: rgb(255, 255, 255); fill: rgb(105, 182, 191); fill-rule: evenodd;"></path><text transform="rotate(110.52631578947367)" x="204.1241452319315" dx="6" dy=".35em" style="font-size: 11px; font-family: Arial, Helvetica;">zanyarjamal/TrackUrl</text><title>A Bash/JS Script For Tracking Locations: 1</title></g><g><path d="M-94.07734298695885,231.62351680370045A250,250 0 0,1 -106.69410887410092,226.0892901743944L-87.11537510083394,184.60113241176953A204.1241452319315,204.1241452319315 0 0,0 -76.81382889161688,189.1198095326771Z" style="stroke: rgb(255, 255, 255); fill: rgb(105, 141, 191); fill-rule: evenodd;"></path><text transform="rotate(113.68421052631578)" x="204.1241452319315" dx="6" dy=".35em" style="font-size: 11px; font-family: Arial, Helvetica;">zmallen/lollocker</text><title>The third open source piece of ransomware using bash: 1</title></g><g><path d="M-87.11537510083394,184.60113241176953A204.1241452319315,204.1241452319315 0 0,1 -97.15235477905878,179.52182771894496L-68.69708887251375,126.94110175106908A144.33756729740642,144.33756729740642 0 0,0 -61.59987247940939,130.532712543078Z" style="stroke: rgb(255, 255, 255); fill: rgb(105, 135, 191); fill-rule: evenodd;"></path><text transform="rotate(116.84210526315788)" x="144.33756729740642" dx="6" dy=".35em" style="font-size: 11px; font-family: Arial, Helvetica;">tuvtran/project-based-learning</text><title>Curated list of project-based tutorials: 1</title></g><g><path d="M-97.15235477905878,179.52182771894496A204.1241452319315,204.1241452319315 0 0,1 -116.31158268555035,167.74469410341732L-82.24470884749248,118.61341070858944A144.33756729740642,144.33756729740642 0 0,0 -68.69708887251375,126.94110175106908Z" style="stroke: rgb(255, 255, 255); fill: rgb(105, 129, 191); fill-rule: evenodd;"></path><text transform="rotate(121.57894736842105)" x="144.33756729740642" dx="6" dy=".35em" style="font-size: 11px; font-family: Arial, Helvetica;">C#</text><title>C#: none</title></g><g><path d="M-118.98684825926838,219.86843780162226A250,250 0 0,1 -130.91822849696948,212.97985220958176L-106.89428594889034,173.8973211356159A204.1241452319315,204.1241452319315 0 0,0 -97.15235477905878,179.52182771894496Z" style="stroke: rgb(255, 255, 255); fill: rgb(105, 129, 191); fill-rule: evenodd;"></path><text transform="rotate(120)" x="204.1241452319315" dx="6" dy=".35em" style="font-size: 11px; font-family: Arial, Helvetica;">tyranid/DeviceGuardBypasses</text><title>A repository of some of my Windows 10 Device Guard Bypasses: 1</title></g><g><path d="M-130.91822849696948,212.97985220958176A250,250 0 0,1 -142.45201437756654,205.4444538063113L-116.31158268555035,167.74469410341732A204.1241452319315,204.1241452319315 0 0,0 -106.89428594889034,173.8973211356159Z" style="stroke: rgb(255, 255, 255); fill: rgb(105, 123, 191); fill-rule: evenodd;"></path><text transform="rotate(123.15789473684208)" x="204.1241452319315" dx="6" dy=".35em" style="font-size: 11px; font-family: Arial, Helvetica;">tyranid/DotNetToJScript</text><title>A tool to create a JScript file which loads a .NET v2 assembly from memory.: 1</title></g><g><path d="M-116.31158268555035,167.74469410341732A204.1241452319315,204.1241452319315 0 0,1 -134.05894553808469,153.93136713445867L-94.79398946869775,108.84591353809176A144.33756729740642,144.33756729740642 0 0,0 -82.24470884749248,118.61341070858944Z" style="stroke: rgb(255, 255, 255); fill: rgb(105, 117, 191); fill-rule: evenodd;"></path><text transform="rotate(127.89473684210526)" x="144.33756729740642" dx="6" dy=".35em" style="font-size: 11px; font-family: Arial, Helvetica;">Lua</text><title>Lua: none</title></g><g><path d="M-142.45201437756654,205.4444538063113A250,250 0 0,1 -153.55317817241695,197.2851273490984L-125.37564496836437,161.08263194842985A204.1241452319315,204.1241452319315 0 0,0 -116.31158268555035,167.74469410341732Z" style="stroke: rgb(255, 255, 255); fill: rgb(105, 117, 191); fill-rule: evenodd;"></path><text transform="rotate(126.3157894736842)" x="204.1241452319315" dx="6" dy=".35em" style="font-size: 11px; font-family: Arial, Helvetica;">ulissescastro/linux-native-backdoors</text><title>Repository holding all alternatives of *nix backdoors.: 1</title></g><g><path d="M-153.55317817241695,197.2851273490984A250,250 0 0,1 -164.1880060119336,188.52665244422406L-134.05894553808469,153.93136713445867A204.1241452319315,204.1241452319315 0 0,0 -125.37564496836437,161.08263194842985Z" style="stroke: rgb(255, 255, 255); fill: rgb(105, 111, 191); fill-rule: evenodd;"></path><text transform="rotate(129.47368421052633)" x="204.1241452319315" dx="6" dy=".35em" style="font-size: 11px; font-family: Arial, Helvetica;">vulnersCom/nmap-vulners</text><title>NSE script based on Vulners.com API: 1</title></g><g><path d="M-134.05894553808469,153.93136713445867A204.1241452319315,204.1241452319315 0 0,1 -164.47611345076407,120.88951472645608L-116.3021751642432,85.48179563742809A144.33756729740642,144.33756729740642 0 0,0 -94.79398946869775,108.84591353809176Z" style="stroke: rgb(255, 255, 255); fill: rgb(105, 105, 191); fill-rule: evenodd;"></path><text transform="rotate(137.3684210526316)" x="144.33756729740642" dx="6" dy=".35em" style="font-size: 11px; font-family: Arial, Helvetica;">C</text><title>C: none</title></g><g><path d="M-164.1880060119336,188.52665244422406A250,250 0 0,1 -174.32420027349886,179.19562829211281L-142.33511349627196,146.31261781770579A204.1241452319315,204.1241452319315 0 0,0 -134.05894553808469,153.93136713445867Z" style="stroke: rgb(255, 255, 255); fill: rgb(105, 105, 191); fill-rule: evenodd;"></path><text transform="rotate(132.6315789473684)" x="204.1241452319315" dx="6" dy=".35em" style="font-size: 11px; font-family: Arial, Helvetica;">unix-thrust/beurk</text><title>BEURK Experimental Unix RootKit: 1</title></g><g><path d="M-174.32420027349886,179.19562829211281A250,250 0 0,1 -183.9309776682829,169.32039290643527L-150.1790143928469,138.2495218894436A204.1241452319315,204.1241452319315 0 0,0 -142.33511349627196,146.31261781770579Z" style="stroke: rgb(255, 255, 255); fill: rgb(111, 105, 191); fill-rule: evenodd;"></path><text transform="rotate(135.78947368421052)" x="204.1241452319315" dx="6" dy=".35em" style="font-size: 11px; font-family: Arial, Helvetica;">vanhauser-thc/thc-hydra</text><title>hydra: 1</title></g><g><path d="M-183.9309776682829,169.32039290643527A250,250 0 0,1 -192.97916272908023,158.930937052492L-157.56682655858924,129.76656670699936A204.1241452319315,204.1241452319315 0 0,0 -150.1790143928469,138.2495218894436Z" style="stroke: rgb(255, 255, 255); fill: rgb(117, 105, 191); fill-rule: evenodd;"></path><text transform="rotate(138.94736842105263)" x="204.1241452319315" dx="6" dy=".35em" style="font-size: 11px; font-family: Arial, Helvetica;">wg/wrk</text><title>Modern HTTP benchmarking tool: 1</title></g><g><path d="M-192.97916272908023,158.930937052492A250,250 0 0,1 -201.4412764152445,148.05881316624507L-164.47611345076407,120.88951472645608A204.1241452319315,204.1241452319315 0 0,0 -157.56682655858924,129.76656670699936Z" style="stroke: rgb(255, 255, 255); fill: rgb(123, 105, 191); fill-rule: evenodd;"></path><text transform="rotate(142.10526315789474)" x="204.1241452319315" dx="6" dy=".35em" style="font-size: 11px; font-family: Arial, Helvetica;">xNymia/CtrlHandlerHookPersistance</text><title>An Idea I had that im futzing with.: 1</title></g><g><path d="M-164.47611345076407,120.88951472645608A204.1241452319315,204.1241452319315 0 0,1 -191.164556609444,71.57359123993534L-135.17375430105747,50.610171719632355A144.33756729740642,144.33756729740642 0 0,0 -116.3021751642432,85.48179563742809Z" style="stroke: rgb(255, 255, 255); fill: rgb(129, 105, 191); fill-rule: evenodd;"></path><text transform="rotate(151.578947368421)" x="144.33756729740642" dx="6" dy=".35em" style="font-size: 11px; font-family: Arial, Helvetica;">Go</text><title>Go: none</title></g><g><path d="M-201.4412764152445,148.05881316624507A250,250 0 0,1 -209.29161956563203,136.7370395306069L-170.8858917921649,111.64532526291984A204.1241452319315,204.1241452319315 0 0,0 -164.47611345076407,120.88951472645608Z" style="stroke: rgb(255, 255, 255); fill: rgb(129, 105, 191); fill-rule: evenodd;"></path><text transform="rotate(145.26315789473682)" x="204.1241452319315" dx="6" dy=".35em" style="font-size: 11px; font-family: Arial, Helvetica;">valyala/goloris</text><title>Slowloris for nginx DoS. Written in go: 1</title></g><g><path d="M-209.29161956563203,136.7370395306069A250,250 0 0,1 -216.5063509461095,125.00000000000028L-176.77669529663675,102.06207261596597A204.1241452319315,204.1241452319315 0 0,0 -170.8858917921649,111.64532526291984Z" style="stroke: rgb(255, 255, 255); fill: rgb(135, 105, 191); fill-rule: evenodd;"></path><text transform="rotate(148.4210526315789)" x="204.1241452319315" dx="6" dy=".35em" style="font-size: 11px; font-family: Arial, Helvetica;">vedhavyas/zwfp</text><title>Zero-Width fingerprinting: 1</title></g><g><path d="M-216.5063509461095,125.00000000000028A250,250 0 0,1 -223.06355965459832,112.88333957772272L-182.13063378754737,92.16886080891405A204.1241452319315,204.1241452319315 0 0,0 -176.77669529663675,102.06207261596597Z" style="stroke: rgb(255, 255, 255); fill: rgb(141, 105, 191); fill-rule: evenodd;"></path><text transform="rotate(151.57894736842096)" x="204.1241452319315" dx="6" dy=".35em" style="font-size: 11px; font-family: Arial, Helvetica;">vektah/gqlgen</text><title>go generate based graphql server library: 1</title></g><g><path d="M-223.06355965459832,112.88333957772272A250,250 0 0,1 -228.94333166376416,100.42385616324286L-186.9314475296658,81.99573520086554A204.1241452319315,204.1241452319315 0 0,0 -182.13063378754737,92.16886080891405Z" style="stroke: rgb(255, 255, 255); fill: rgb(146, 105, 191); fill-rule: evenodd;"></path><text transform="rotate(154.73684210526307)" x="204.1241452319315" dx="6" dy=".35em" style="font-size: 11px; font-family: Arial, Helvetica;">zricethezav/gitleaks</text><title>Searches full repo history for secrets and keys 🔑: 1</title></g><g><path d="M-228.94333166376416,100.42385616324286A250,250 0 0,1 -234.12781029926347,87.6593887981892L-191.16455660944385,71.57359123993568A204.1241452319315,204.1241452319315 0 0,0 -186.9314475296658,81.99573520086554Z" style="stroke: rgb(255, 255, 255); fill: rgb(152, 105, 191); fill-rule: evenodd;"></path><text transform="rotate(157.89473684210515)" x="204.1241452319315" dx="6" dy=".35em" style="font-size: 11px; font-family: Arial, Helvetica;">zxsecurity/steamer</text><title>For importing, searching, and managing public password breach data: 1</title></g><g><path d="M-191.164556609444,71.57359123993534A204.1241452319315,204.1241452319315 0 0,1 -194.81710521373435,60.93408063479272L-137.75649618776464,43.08690162222982A144.33756729740642,144.33756729740642 0 0,0 -135.17375430105747,50.610171719632355Z" style="stroke: rgb(255, 255, 255); fill: rgb(158, 105, 191); fill-rule: evenodd;"></path><text transform="rotate(161.0526315789473)" x="144.33756729740642" dx="6" dy=".35em" style="font-size: 11px; font-family: Arial, Helvetica;">vegasbrianc/docker-monitoring</text><title>Docker-Monitoring based on Cadvisor, InfluxDB, and Grafana: 1</title></g><g><path d="M-194.81710521373435,60.93408063479272A204.1241452319315,204.1241452319315 0 0,1 -197.8780006724728,50.10951522946027L-139.92087612314174,35.43277802072193A144.33756729740642,144.33756729740642 0 0,0 -137.75649618776464,43.08690162222982Z" style="stroke: rgb(255, 255, 255); fill: rgb(164, 105, 191); fill-rule: evenodd;"></path><text transform="rotate(164.2105263157894)" x="144.33756729740642" dx="6" dy=".35em" style="font-size: 11px; font-family: Arial, Helvetica;">veggiemonk/awesome-docker</text><title>:whale: A curated list of Docker resources and projects: 1</title></g><g><path d="M-197.8780006724728,50.10951522946027A204.1241452319315,204.1241452319315 0 0,1 -200.3379471467525,39.13276887330697L-141.66032095646082,27.67104623692121A144.33756729740642,144.33756729740642 0 0,0 -139.92087612314174,35.43277802072193Z" style="stroke: rgb(255, 255, 255); fill: rgb(170, 105, 191); fill-rule: evenodd;"></path><text transform="rotate(167.36842105263148)" x="144.33756729740642" dx="6" dy=".35em" style="font-size: 11px; font-family: Arial, Helvetica;">vfreex/docker-cowrie</text><title>Dockerfile and docker-compose file to run Cowrie in Docker. : 1</title></g><g><path d="M-200.3379471467525,39.13276887330697A204.1241452319315,204.1241452319315 0 0,1 -200.3379471467527,-39.132768873306034L-141.66032095646096,-27.671046236920546A144.33756729740642,144.33756729740642 0 0,0 -141.66032095646082,27.67104623692121Z" style="stroke: rgb(255, 255, 255); fill: rgb(176, 105, 191); fill-rule: evenodd;"></path><text transform="rotate(179.9999999999999)" x="144.33756729740642" dx="6" dy=".35em" style="font-size: 11px; font-family: Arial, Helvetica;">JavaScript</text><title>JavaScript: none</title></g><g><path d="M-245.36287331310436,47.92765798093513A250,250 0 0,1 -247.63052115937572,34.338389454602684L-202.18947385998118,28.037177584247775A204.1241452319315,204.1241452319315 0 0,0 -200.3379471467525,39.13276887330697Z" style="stroke: rgb(255, 255, 255); fill: rgb(176, 105, 191); fill-rule: evenodd;"></path><text transform="rotate(170.52631578947356)" x="204.1241452319315" dx="6" dy=".35em" style="font-size: 11px; font-family: Arial, Helvetica;">vincentcox/StaCoAn</text><title>StaCoAn is a crossplatform tool which aids developers, bugbounty hunters and ethical hackers performing static code analysis on mobile applications.: 1</title></g><g><path d="M-247.63052115937572,34.338389454602684A250,250 0 0,1 -249.1461232516674,20.644836368083833L-203.42695778638424,16.85643830835282A204.1241452319315,204.1241452319315 0 0,0 -202.18947385998118,28.037177584247775Z" style="stroke: rgb(255, 255, 255); fill: rgb(182, 105, 191); fill-rule: evenodd;"></path><text transform="rotate(173.68421052631564)" x="204.1241452319315" dx="6" dy=".35em" style="font-size: 11px; font-family: Arial, Helvetica;">wKovacs64/pwned</text><title>A command-line tool for querying the 'Have I been pwned?' service.: 1</title></g><g><path d="M-249.1461232516674,20.644836368083833A250,250 0 0,1 -249.90507675623783,6.888585592041363L-204.0466407279491,5.624506583329768A204.1241452319315,204.1241452319315 0 0,0 -203.42695778638424,16.85643830835282Z" style="stroke: rgb(255, 255, 255); fill: rgb(191, 129, 105); fill-rule: evenodd;"></path><text transform="rotate(176.84210526315772)" x="204.1241452319315" dx="6" dy=".35em" style="font-size: 11px; font-family: Arial, Helvetica;">xSploited/datasploit</text><title>A tool to perform various OSINT techniques, aggregate all the raw data, visualise it on a dashboard, and facilitate alerting and monitoring on the data. : 1</title></g><g><path d="M-249.90507675623783,6.888585592041363A250,250 0 0,1 -249.9050767562379,-6.888585592039526L-204.04664072794915,-5.624506583328268A204.1241452319315,204.1241452319315 0 0,0 -204.0466407279491,5.624506583329768Z" style="stroke: rgb(255, 255, 255); fill: rgb(191, 129, 105); fill-rule: evenodd;"></path><text transform="rotate(179.9999999999998)" x="204.1241452319315" dx="6" dy=".35em" style="font-size: 11px; font-family: Arial, Helvetica;">xSploited/moloch</text><title>Moloch is a open source large scale IPv4 full PCAP capturing, indexing and database system.: 1</title></g><g><path d="M-249.9050767562379,-6.888585592039526A250,250 0 0,1 -249.14612325166755,-20.644836368082004L-203.42695778638435,-16.856438308351326A204.1241452319315,204.1241452319315 0 0,0 -204.04664072794915,-5.624506583328268Z" style="stroke: rgb(255, 255, 255); fill: rgb(191, 129, 105); fill-rule: evenodd;"></path><text transform="rotate(183.15789473684188)" x="204.1241452319315" dx="6" dy=".35em" style="font-size: 11px; font-family: Arial, Helvetica;">xSploited/yeti</text><title>Your Everyday Threat Intelligence: 1</title></g><g><path d="M-249.14612325166755,-20.644836368082004A250,250 0 0,1 -247.63052115937597,-34.33838945460086L-202.18947385998138,-28.037177584246283A204.1241452319315,204.1241452319315 0 0,0 -203.42695778638435,-16.856438308351326Z" style="stroke: rgb(255, 255, 255); fill: rgb(188, 105, 191); fill-rule: evenodd;"></path><text transform="rotate(186.31578947368396)" x="204.1241452319315" dx="6" dy=".35em" style="font-size: 11px; font-family: Arial, Helvetica;">zerobias/telegram-mtproto</text><title>Telegram client api (MTProto) library: 1</title></g><g><path d="M-247.63052115937597,-34.33838945460086A250,250 0 0,1 -245.36287331310473,-47.927657980933326L-200.33794714675278,-39.1327688733055A204.1241452319315,204.1241452319315 0 0,0 -202.18947385998138,-28.037177584246283Z" style="stroke: rgb(255, 255, 255); fill: rgb(191, 105, 188); fill-rule: evenodd;"></path><text transform="rotate(189.47368421052602)" x="204.1241452319315" dx="6" dy=".35em" style="font-size: 11px; font-family: Arial, Helvetica;">zhukov/webogram</text><title>Telegram web application, GPL v3: 1</title></g><g><path d="M-200.3379471467527,-39.132768873306034A204.1241452319315,204.1241452319315 0 0,1 -106.89428594889084,-173.89732113561558L-75.5856744645546,-122.9639750051685A144.33756729740642,144.33756729740642 0 0,0 -141.66032095646096,-27.671046236920546Z" style="stroke: rgb(255, 255, 255); fill: rgb(191, 105, 182); fill-rule: evenodd;"></path><text transform="rotate(214.73684210526304)" x="144.33756729740642" dx="6" dy=".35em" style="font-size: 11px; font-family: Arial, Helvetica;">PowerShell</text><title>PowerShell: none</title></g><g><path d="M-245.36287331310461,-47.92765798093398A250,250 0 0,1 -242.35006648483278,-61.37137178519907L-197.87800067247304,-50.10951522945935A204.1241452319315,204.1241452319315 0 0,0 -200.3379471467527,-39.132768873306034Z" style="stroke: rgb(255, 255, 255); fill: rgb(191, 105, 182); fill-rule: evenodd;"></path><text transform="rotate(192.63157894736827)" x="204.1241452319315" dx="6" dy=".35em" style="font-size: 11px; font-family: Arial, Helvetica;">vletoux/NTLMInjector</text><title>In case you didn't now how to restore the user password after a password reset (get the previous hash with DCSync): 1</title></g><g><path d="M-242.35006648483278,-61.37137178519907A250,250 0 0,1 -234.12781029926396,-87.65938879818789L-191.16455660944425,-71.57359123993461A204.1241452319315,204.1241452319315 0 0,0 -197.87800067247304,-50.10951522945935Z" style="stroke: rgb(255, 255, 255); fill: rgb(191, 129, 105); fill-rule: evenodd;"></path><text transform="rotate(197.3684210526314)" x="204.1241452319315" dx="6" dy=".35em" style="font-size: 11px; font-family: Arial, Helvetica;">xSploited/PowerShell-Botnet</text><title>A POC powershell botnet: 2</title></g><g><path d="M-234.12781029926396,-87.65938879818789A250,250 0 0,1 -228.94333166376472,-100.42385616324158L-186.93144752966626,-81.99573520086449A204.1241452319315,204.1241452319315 0 0,0 -191.16455660944425,-71.57359123993461Z" style="stroke: rgb(255, 255, 255); fill: rgb(191, 129, 105); fill-rule: evenodd;"></path><text transform="rotate(202.10526315789457)" x="204.1241452319315" dx="6" dy=".35em" style="font-size: 11px; font-family: Arial, Helvetica;">xSploited/CrackMapExecWin</text><title>The great CrackMapExec tool compiled for Windows: 1</title></g><g><path d="M-228.94333166376472,-100.42385616324158A250,250 0 0,1 -223.06355965459892,-112.88333957772149L-182.13063378754785,-92.16886080891304A204.1241452319315,204.1241452319315 0 0,0 -186.93144752966626,-81.99573520086449Z" style="stroke: rgb(255, 255, 255); fill: rgb(191, 129, 105); fill-rule: evenodd;"></path><text transform="rotate(205.26315789473665)" x="204.1241452319315" dx="6" dy=".35em" style="font-size: 11px; font-family: Arial, Helvetica;">xSploited/DomainPasswordSpray</text><title>DomainPasswordSpray is a tool written in PowerShell to perform a password spray attack against users of a domain. By default it will automatically generate the userlist from the domain. BE VERY CAREFUL NOT TO LOCKOUT ACCOUNTS!: 1</title></g><g><path d="M-223.06355965459892,-112.88333957772149A250,250 0 0,1 -216.50635094611022,-124.99999999999908L-176.7766952966373,-102.062072615965A204.1241452319315,204.1241452319315 0 0,0 -182.13063378754785,-92.16886080891304Z" style="stroke: rgb(255, 255, 255); fill: rgb(191, 129, 105); fill-rule: evenodd;"></path><text transform="rotate(208.4210526315787)" x="204.1241452319315" dx="6" dy=".35em" style="font-size: 11px; font-family: Arial, Helvetica;">xSploited/EncryptedStore</text><title>Offensive Data Storage: 1</title></g><g><path d="M-216.50635094611022,-124.99999999999908A250,250 0 0,1 -209.2916195656328,-136.73703953060573L-170.88589179216555,-111.64532526291889A204.1241452319315,204.1241452319315 0 0,0 -176.7766952966373,-102.062072615965Z" style="stroke: rgb(255, 255, 255); fill: rgb(191, 129, 105); fill-rule: evenodd;"></path><text transform="rotate(211.57894736842078)" x="204.1241452319315" dx="6" dy=".35em" style="font-size: 11px; font-family: Arial, Helvetica;">xSploited/Interceptor</text><title>PowerShell HTTP(s) Intercepting Proxy: 1</title></g><g><path d="M-209.2916195656328,-136.73703953060573A250,250 0 0,1 -201.4412764152453,-148.05881316624397L-164.47611345076476,-120.88951472645519A204.1241452319315,204.1241452319315 0 0,0 -170.88589179216555,-111.64532526291889Z" style="stroke: rgb(255, 255, 255); fill: rgb(191, 129, 105); fill-rule: evenodd;"></path><text transform="rotate(214.73684210526287)" x="204.1241452319315" dx="6" dy=".35em" style="font-size: 11px; font-family: Arial, Helvetica;">xSploited/Invoke-TheHash</text><title>PowerShell Pass The Hash Utils: 1</title></g><g><path d="M-201.4412764152453,-148.05881316624397A250,250 0 0,1 -192.9791627290811,-158.93093705249092L-157.56682655858998,-129.76656670699847A204.1241452319315,204.1241452319315 0 0,0 -164.47611345076476,-120.88951472645519Z" style="stroke: rgb(255, 255, 255); fill: rgb(191, 129, 105); fill-rule: evenodd;"></path><text transform="rotate(217.89473684210498)" x="204.1241452319315" dx="6" dy=".35em" style="font-size: 11px; font-family: Arial, Helvetica;">xSploited/Misc-PowerShell-Stuff</text><title>random powershell goodness: 1</title></g><g><path d="M-192.9791627290811,-158.93093705249092A250,250 0 0,1 -183.93097766828393,-169.32039290643417L-150.17901439284773,-138.2495218894427A204.1241452319315,204.1241452319315 0 0,0 -157.56682655858998,-129.76656670699847Z" style="stroke: rgb(255, 255, 255); fill: rgb(191, 129, 105); fill-rule: evenodd;"></path><text transform="rotate(221.05263157894706)" x="204.1241452319315" dx="6" dy=".35em" style="font-size: 11px; font-family: Arial, Helvetica;">xSploited/PoshC2</text><title>Powershell C2 Server and Implants: 1</title></g><g><path d="M-183.93097766828393,-169.32039290643417A250,250 0 0,1 -174.32420027350003,-179.19562829211168L-142.33511349627292,-146.31261781770488A204.1241452319315,204.1241452319315 0 0,0 -150.17901439284773,-138.2495218894427Z" style="stroke: rgb(255, 255, 255); fill: rgb(191, 129, 105); fill-rule: evenodd;"></path><text transform="rotate(224.21052631578914)" x="204.1241452319315" dx="6" dy=".35em" style="font-size: 11px; font-family: Arial, Helvetica;">xSploited/mimikittenz</text><title>A post-exploitation powershell tool for extracting juicy info from memory.: 1</title></g><g><path d="M-174.32420027350003,-179.19562829211168A250,250 0 0,1 -164.1880060119349,-188.52665244422292L-134.05894553808577,-153.93136713445773A204.1241452319315,204.1241452319315 0 0,0 -142.33511349627292,-146.31261781770488Z" style="stroke: rgb(255, 255, 255); fill: rgb(191, 105, 176); fill-rule: evenodd;"></path><text transform="rotate(227.36842105263122)" x="204.1241452319315" dx="6" dy=".35em" style="font-size: 11px; font-family: Arial, Helvetica;">xillwillx/tricky.lnk</text><title>Creates a .lnk file with unicode chars that reverse the file extension and adds a .txt to the end to make it appear as a textfile.  Payload is a powershell webdl and execute: 1</title></g><g><path d="M-164.1880060119349,-188.52665244422292A250,250 0 0,1 -153.5531781724184,-197.28512734909728L-125.37564496836555,-161.08263194842894A204.1241452319315,204.1241452319315 0 0,0 -134.05894553808577,-153.93136713445773Z" style="stroke: rgb(255, 255, 255); fill: rgb(191, 105, 170); fill-rule: evenodd;"></path><text transform="rotate(230.52631578947327)" x="204.1241452319315" dx="6" dy=".35em" style="font-size: 11px; font-family: Arial, Helvetica;">xorrior/Leviathan</text><title>A simple, quick, and dirty websocket shell for PowerShell. : 1</title></g><g><path d="M-153.5531781724184,-197.28512734909728A250,250 0 0,1 -142.45201437756816,-205.44445380631018L-116.31158268555167,-167.7446941034164A204.1241452319315,204.1241452319315 0 0,0 -125.37564496836555,-161.08263194842894Z" style="stroke: rgb(255, 255, 255); fill: rgb(191, 105, 164); fill-rule: evenodd;"></path><text transform="rotate(233.68421052631535)" x="204.1241452319315" dx="6" dy=".35em" style="font-size: 11px; font-family: Arial, Helvetica;">xorrior/RandomPS-Scripts</text><title>PowerShell Scripts focused on Post-Exploitation Capabilities: 1</title></g><g><path d="M-142.45201437756816,-205.44445380631018A250,250 0 0,1 -130.9182284969712,-212.97985220958068L-106.89428594889178,-173.89732113561502A204.1241452319315,204.1241452319315 0 0,0 -116.31158268555167,-167.7446941034164Z" style="stroke: rgb(255, 255, 255); fill: rgb(191, 105, 158); fill-rule: evenodd;"></path><text transform="rotate(236.84210526315744)" x="204.1241452319315" dx="6" dy=".35em" style="font-size: 11px; font-family: Arial, Helvetica;">xorrior/RemoteRecon</text><title>Remote Recon and Collection: 1</title></g><g><path d="M-106.89428594889084,-173.89732113561558A204.1241452319315,204.1241452319315 0 0,1 -97.15235477905938,-179.52182771894465L-68.69708887251417,-126.94110175106887A144.33756729740642,144.33756729740642 0 0,0 -75.5856744645546,-122.9639750051685Z" style="stroke: rgb(255, 255, 255); fill: rgb(191, 105, 152); fill-rule: evenodd;"></path><text transform="rotate(239.99999999999983)" x="144.33756729740642" dx="6" dy=".35em" style="font-size: 11px; font-family: Arial, Helvetica;">vysec/CVE-2017-8759</text><title>CVE-2017-8759 - A vulnerability in the SOAP WDSL parser.: 1</title></g><g><path d="M-97.15235477905938,-179.52182771894465A204.1241452319315,204.1241452319315 0 0,1 -87.11537510083464,-184.60113241176919L-61.59987247940989,-130.53271254307776A144.33756729740642,144.33756729740642 0 0,0 -68.69708887251417,-126.94110175106887Z" style="stroke: rgb(255, 255, 255); fill: rgb(191, 105, 146); fill-rule: evenodd;"></path><text transform="rotate(243.1578947368419)" x="144.33756729740642" dx="6" dy=".35em" style="font-size: 11px; font-family: Arial, Helvetica;">vysec/RedTips</text><title>Red Team Tips as posted by @vysecurity on Twitter: 1</title></g><g><path d="M-87.11537510083464,-184.60113241176919A204.1241452319315,204.1241452319315 0 0,1 -76.81382889161769,-189.11980953267678L-54.31557929816601,-133.727899777264A144.33756729740642,144.33756729740642 0 0,0 -61.59987247940989,-130.53271254307776Z" style="stroke: rgb(255, 255, 255); fill: rgb(191, 105, 141); fill-rule: evenodd;"></path><text transform="rotate(246.31578947368396)" x="144.33756729740642" dx="6" dy=".35em" style="font-size: 11px; font-family: Arial, Helvetica;">Gherkin</text><title>Gherkin: none</title></g><g><path d="M-106.69410887410177,-226.08929017439397A250,250 0 0,1 -94.07734298695983,-231.62351680370006L-76.81382889161769,-189.11980953267678A204.1241452319315,204.1241452319315 0 0,0 -87.11537510083464,-184.60113241176919Z" style="stroke: rgb(255, 255, 255); fill: rgb(191, 105, 141); fill-rule: evenodd;"></path><text transform="rotate(246.31578947368396)" x="204.1241452319315" dx="6" dy=".35em" style="font-size: 11px; font-family: Arial, Helvetica;">wildlyinaccurate/jekyll-responsive-image</text><title>An unopinionated Jekyll plugin for generating and using responsive images: 1</title></g><g><path d="M-76.81382889161769,-189.11980953267678A204.1241452319315,204.1241452319315 0 0,1 -66.27900160866878,-193.06413600776492L-46.86633148776378,-136.51695977501245A144.33756729740642,144.33756729740642 0 0,0 -54.31557929816601,-133.727899777264Z" style="stroke: rgb(255, 255, 255); fill: rgb(191, 105, 135); fill-rule: evenodd;"></path><text transform="rotate(249.47368421052605)" x="144.33756729740642" dx="6" dy=".35em" style="font-size: 11px; font-family: Arial, Helvetica;">wsargent/docker-cheat-sheet</text><title>Docker Cheat Sheet: 1</title></g><g><path d="M-66.27900160866878,-193.06413600776492A204.1241452319315,204.1241452319315 0 0,1 -55.54288717620193,-196.42213304716543L-39.274752168971716,-138.89142225277692A144.33756729740642,144.33756729740642 0 0,0 -46.86633148776378,-136.51695977501245Z" style="stroke: rgb(255, 255, 255); fill: rgb(191, 105, 129); fill-rule: evenodd;"></path><text transform="rotate(252.63157894736815)" x="144.33756729740642" dx="6" dy=".35em" style="font-size: 11px; font-family: Arial, Helvetica;">xNymia/Suricata-Signatures</text><title>Suricata rules for Emerging Threats and funkyness: 1</title></g><g><path d="M-55.54288717620193,-196.42213304716543A204.1241452319315,204.1241452319315 0 0,1 -44.638090820888614,-199.18360252423582L-31.56389671867132,-140.84407604605306A144.33756729740642,144.33756729740642 0 0,0 -39.274752168971716,-138.89142225277692Z" style="stroke: rgb(255, 255, 255); fill: rgb(191, 129, 105); fill-rule: evenodd;"></path><text transform="rotate(255.78947368421024)" x="144.33756729740642" dx="6" dy=".35em" style="font-size: 11px; font-family: Arial, Helvetica;">xSploited/Leaked_Malware_SourceCode</text><title>Collections of Malware source code: 1</title></g><g><path d="M-44.638090820888614,-199.18360252423582A204.1241452319315,204.1241452319315 0 0,1 -33.597730050855986,-201.34015794693434L-23.757182751435316,-142.36899100944783A144.33756729740642,144.33756729740642 0 0,0 -31.56389671867132,-140.84407604605306Z" style="stroke: rgb(255, 255, 255); fill: rgb(191, 129, 105); fill-rule: evenodd;"></path><text transform="rotate(258.9473684210523)" x="144.33756729740642" dx="6" dy=".35em" style="font-size: 11px; font-family: Arial, Helvetica;">Bro</text><title>Bro: none</title></g><g><path d="M-54.6702728015953,-243.9490956568586A250,250 0 0,1 -41.14864757018494,-246.59032585068036L-33.597730050855986,-201.34015794693434A204.1241452319315,204.1241452319315 0 0,0 -44.638090820888614,-199.18360252423582Z" style="stroke: rgb(255, 255, 255); fill: rgb(191, 129, 105); fill-rule: evenodd;"></path><text transform="rotate(258.9473684210523)" x="204.1241452319315" dx="6" dy=".35em" style="font-size: 11px; font-family: Arial, Helvetica;">xSploited/cs-bro</text><title>Bro scripts written by CrowdStrike Services: 1</title></g><g><path d="M-33.597730050855986,-201.34015794693434A204.1241452319315,204.1241452319315 0 0,1 -22.455334078903157,-202.885249927321L-15.878319001001797,-143.46153602633618A144.33756729740642,144.33756729740642 0 0,0 -23.757182751435316,-142.36899100944783Z" style="stroke: rgb(255, 255, 255); fill: rgb(191, 105, 123); fill-rule: evenodd;"></path><text transform="rotate(262.1052631578944)" x="144.33756729740642" dx="6" dy=".35em" style="font-size: 11px; font-family: Arial, Helvetica;">PHP</text><title>PHP: none</title></g><g><path d="M-41.14864757018494,-246.59032585068036A250,250 0 0,1 -27.502055248521415,-248.4826693294872L-22.455334078903157,-202.885249927321A204.1241452319315,204.1241452319315 0 0,0 -33.597730050855986,-201.34015794693434Z" style="stroke: rgb(255, 255, 255); fill: rgb(191, 105, 123); fill-rule: evenodd;"></path><text transform="rotate(262.1052631578944)" x="204.1241452319315" dx="6" dy=".35em" style="font-size: 11px; font-family: Arial, Helvetica;">xplico/CapAnalysis</text><title>CapAnalysis source code repository: 1</title></g><g><path d="M-22.455334078903157,-202.885249927321A204.1241452319315,204.1241452319315 0 0,1 -11.244741995383912,-203.81418607183335L-7.9512333176291135,-144.11839307341015A144.33756729740642,144.33756729740642 0 0,0 -15.878319001001797,-143.46153602633618Z" style="stroke: rgb(255, 255, 255); fill: rgb(191, 105, 117); fill-rule: evenodd;"></path><text transform="rotate(265.2631578947365)" x="144.33756729740642" dx="6" dy=".35em" style="font-size: 11px; font-family: Arial, Helvetica;">CoffeeScript</text><title>CoffeeScript: none</title></g><g><path d="M-27.502055248521415,-248.4826693294872A250,250 0 0,1 -13.771940088968071,-249.62037910832896L-11.244741995383912,-203.81418607183335A204.1241452319315,204.1241452319315 0 0,0 -22.455334078903157,-202.885249927321Z" style="stroke: rgb(255, 255, 255); fill: rgb(191, 105, 117); fill-rule: evenodd;"></path><text transform="rotate(265.2631578947365)" x="204.1241452319315" dx="6" dy=".35em" style="font-size: 11px; font-family: Arial, Helvetica;">yhatt/marp</text><title>Markdown presentation writer, powered by Electron.: 1</title></g><g><path d="M-11.244741995383912,-203.81418607183335A204.1241452319315,204.1241452319315 0 0,1 -1.4878862830409322e-12,-204.1241452319315L-1.05209448037269e-12,-144.33756729740642A144.33756729740642,144.33756729740642 0 0,0 -7.9512333176291135,-144.11839307341015Z" style="stroke: rgb(255, 255, 255); fill: rgb(191, 105, 111); fill-rule: evenodd;"></path><text transform="rotate(268.42105263157856)" x="144.33756729740642" dx="6" dy=".35em" style="font-size: 11px; font-family: Arial, Helvetica;">Ruby</text><title>Ruby: none</title></g><g><path d="M-13.771940088968071,-249.62037910832896A250,250 0 0,1 -1.822281094368276e-12,-250L-1.4878862830409322e-12,-204.1241452319315A204.1241452319315,204.1241452319315 0 0,0 -11.244741995383912,-203.81418607183335Z" style="stroke: rgb(255, 255, 255); fill: rgb(191, 105, 111); fill-rule: evenodd;"></path><text transform="rotate(268.42105263157856)" x="204.1241452319315" dx="6" dy=".35em" style="font-size: 11px; font-family: Arial, Helvetica;">zt2/sqli-hunter</text><title>A simple sqlmap api wrapper and proxy server: 1</title></g></g></svg>